<svg xmlns="http://www.w3.org/2000/svg" xmlns:xlink="http://www.w3.org/1999/xlink" width="500" zoomAndPan="magnify" viewBox="0 0 375 374.999991" height="500" preserveAspectRatio="xMidYMid meet" version="1.2"><g id="0db92d6266"><rect x="0" width="375" y="0" height="374.999991" style="fill:#ffffff;fill-opacity:1;stroke:none;"/><path style=" stroke:none;fill-rule:nonzero;fill:#00b8d4;fill-opacity:1;" d="M 77.625 206.394531 L 70.152344 253.089844 L 77.609375 206.378906 Z M 77.625 206.394531 "/><path style=" stroke:none;fill-rule:nonzero;fill:#00b8d4;fill-opacity:1;" d="M 161.742188 29.824219 C 157.402344 34.609375 154.269531 40.554688 152.863281 47.230469 L 147.828125 71.160156 L 157.488281 71.160156 L 162.152344 49 C 164.710938 36.84375 174.996094 27.964844 187.21875 27.046875 L 187.222656 27.046875 C 187.910156 26.992188 188.605469 26.964844 189.300781 26.964844 L 200.429688 26.964844 C 204.796875 26.964844 208.972656 27.984375 212.6875 29.824219 C 220.140625 33.492188 225.777344 40.433594 227.582031 49 L 232.25 71.160156 L 241.910156 71.160156 L 236.875 47.230469 C 233.226562 29.914062 217.949219 17.523438 200.261719 17.523438 L 189.480469 17.523438 C 188.726562 17.523438 187.976562 17.550781 187.238281 17.589844 L 187.21875 17.589844 C 177.230469 18.1875 168.167969 22.734375 161.742188 29.824219 Z M 161.742188 29.824219 "/><path style=" stroke:none;fill-rule:nonzero;fill:#00b8d4;fill-opacity:1;" d="M 146.839844 49.003906 C 147.855469 44.203125 150.070312 39.90625 153.132812 36.414062 C 155.714844 31.367188 159.332031 26.859375 163.773438 23.261719 C 166.65625 20.921875 169.835938 19 173.207031 17.539062 C 155.925781 17.976562 141.132812 30.234375 137.5625 47.238281 L 132.523438 71.164062 L 142.179688 71.164062 Z M 146.839844 49.003906 "/><path style=" stroke:none;fill-rule:nonzero;fill:#00b8d4;fill-opacity:1;" d="M 308.988281 115.71875 L 299.5625 99.390625 L 295.65625 92.640625 L 291.90625 86.136719 L 284.925781 74.074219 L 89.980469 74.074219 L 83 86.136719 L 79.261719 92.640625 L 75.355469 99.390625 L 65.917969 115.71875 L 63.417969 120.050781 L 63.417969 140.171875 C 63.417969 141.398438 63.5 142.589844 63.664062 143.757812 L 63.664062 143.773438 C 64.457031 149.347656 67.054688 154.335938 70.863281 158.140625 C 74.824219 162.101562 80.105469 164.773438 86 165.425781 C 86.917969 165.523438 87.863281 165.582031 88.816406 165.582031 C 96.78125 165.582031 103.894531 161.910156 108.550781 156.171875 C 109.101562 156.855469 109.707031 157.519531 110.328125 158.148438 C 111.066406 158.886719 111.84375 159.566406 112.675781 160.21875 C 112.925781 160.421875 113.203125 160.617188 113.46875 160.8125 C 117.640625 163.816406 122.753906 165.582031 128.28125 165.582031 C 136.257812 165.582031 143.355469 161.910156 148.011719 156.171875 C 148.566406 156.855469 149.167969 157.519531 149.792969 158.148438 C 154.390625 162.734375 160.730469 165.578125 167.746094 165.578125 C 175.710938 165.578125 182.820312 161.910156 187.476562 156.171875 C 188.03125 156.855469 188.632812 157.519531 189.253906 158.148438 C 193.84375 162.734375 200.207031 165.578125 207.207031 165.578125 C 215.183594 165.578125 222.285156 161.910156 226.941406 156.171875 C 227.492188 156.855469 228.097656 157.519531 228.71875 158.148438 C 233.304688 162.734375 239.671875 165.578125 246.671875 165.578125 C 252.203125 165.578125 257.320312 163.816406 261.484375 160.8125 C 261.609375 160.730469 261.722656 160.644531 261.832031 160.566406 C 263.527344 159.296875 265.066406 157.824219 266.402344 156.171875 C 266.957031 156.855469 267.554688 157.519531 268.183594 158.148438 C 272.78125 162.734375 279.121094 165.578125 286.136719 165.578125 C 287.039062 165.578125 287.929688 165.539062 288.800781 165.441406 C 300.351562 164.234375 309.605469 155.285156 311.273438 143.890625 C 311.453125 142.679688 311.535156 141.429688 311.535156 140.179688 L 311.535156 120.195312 Z M 82.253906 111.589844 L 96.957031 86.128906 L 277.96875 86.128906 L 292.742188 111.726562 L 295.050781 115.71875 L 79.875 115.71875 Z M 299.511719 140.171875 C 299.511719 143.859375 298.011719 147.195312 295.59375 149.597656 C 293.355469 151.84375 290.316406 153.292969 286.9375 153.488281 C 286.6875 153.503906 286.425781 153.503906 286.171875 153.503906 C 280.597656 153.503906 275.820312 150.070312 273.832031 145.203125 C 272.59375 142.191406 269.703125 140.171875 266.433594 140.171875 L 266.230469 140.171875 C 262.976562 140.171875 260.042969 142.160156 258.847656 145.1875 C 258.226562 146.773438 257.335938 148.398438 256.140625 149.597656 C 255.960938 149.777344 255.78125 149.945312 255.585938 150.109375 C 253.238281 152.21875 250.125 153.496094 246.707031 153.496094 C 241.132812 153.496094 236.355469 150.066406 234.367188 145.199219 C 233.132812 142.183594 230.238281 140.167969 226.972656 140.167969 C 223.71875 140.167969 220.816406 142.183594 219.589844 145.199219 C 218.910156 146.851562 217.90625 148.355469 216.671875 149.589844 C 214.253906 152.007812 210.917969 153.496094 207.234375 153.496094 C 201.660156 153.496094 196.882812 150.066406 194.894531 145.199219 C 193.65625 142.183594 190.765625 140.167969 187.496094 140.167969 C 185.871094 140.167969 184.328125 140.671875 183.035156 141.558594 C 181.757812 142.433594 180.730469 143.683594 180.117188 145.199219 C 179.4375 146.851562 178.433594 148.355469 177.1875 149.589844 C 174.785156 152.007812 171.449219 153.496094 167.765625 153.496094 C 162.191406 153.496094 157.414062 150.066406 155.425781 145.199219 C 154.1875 142.183594 151.296875 140.167969 148.027344 140.167969 C 146.402344 140.167969 144.859375 140.671875 143.566406 141.558594 C 142.289062 142.433594 141.261719 143.683594 140.648438 145.199219 C 139.96875 146.851562 138.964844 148.355469 137.71875 149.589844 C 135.316406 152.007812 131.980469 153.496094 128.296875 153.496094 C 124.890625 153.496094 121.65625 152.339844 119.417969 150.109375 C 117.808594 148.5 116.761719 146.703125 116.097656 145.0625 C 114.890625 142.074219 111.917969 140.167969 108.691406 140.167969 L 108.566406 140.167969 C 105.296875 140.167969 102.410156 142.183594 101.167969 145.199219 C 100.503906 146.851562 99.5 148.355469 98.25 149.589844 C 95.847656 152.007812 92.511719 153.496094 88.828125 153.496094 C 88.394531 153.496094 87.976562 153.480469 87.5625 153.4375 C 80.792969 152.800781 75.5 147.097656 75.5 140.167969 L 75.5 127.785156 L 299.511719 127.785156 Z M 299.511719 140.171875 "/><path style=" stroke:none;fill-rule:nonzero;fill:#00b8d4;fill-opacity:1;" d="M 293.238281 333.390625 C 295.65625 340.710938 293.335938 348.566406 287.332031 353.402344 C 283.972656 356.097656 279.925781 357.472656 275.867188 357.472656 C 272.660156 357.472656 269.449219 356.621094 266.515625 354.886719 L 199.875 315.441406 L 123.320312 315.441406 C 110.089844 315.441406 98.125 310.71875 88.839844 302.964844 C 88.699219 302.851562 88.558594 302.726562 88.421875 302.605469 C 76.386719 292.347656 68.996094 276.949219 69.480469 260.175781 C 69.539062 257.851562 69.761719 255.503906 70.144531 253.128906 L 70.144531 253.085938 L 77.621094 206.390625 L 82.667969 174.742188 C 83.433594 174.898438 84.199219 175.007812 84.972656 175.09375 C 86.277344 175.230469 87.570312 175.296875 88.824219 175.296875 C 95.980469 175.296875 102.816406 173.160156 108.570312 169.238281 C 108.929688 169.484375 109.292969 169.722656 109.652344 169.945312 L 100.742188 225.589844 L 98.699219 238.304688 L 95.625 257.507812 L 95.585938 257.800781 C 95.183594 260.539062 95.183594 263.21875 95.558594 265.800781 C 97.433594 279.019531 108.800781 289.550781 122.964844 289.550781 L 204.8125 289.550781 C 206.003906 289.550781 207.175781 289.871094 208.199219 290.480469 L 250.351562 315.425781 L 262.648438 322.710938 L 259.984375 314.636719 L 254.179688 296.984375 C 252.96875 293.339844 255.105469 289.535156 258.792969 288.453125 C 258.816406 288.453125 258.832031 288.4375 258.859375 288.4375 C 264.128906 286.878906 268.714844 283.824219 272.148438 279.765625 C 273.1875 278.527344 274.132812 277.21875 274.9375 275.816406 C 275.339844 275.132812 275.714844 274.425781 276.0625 273.703125 C 277.996094 269.644531 278.957031 265.074219 278.660156 260.304688 L 278.644531 260.179688 L 272.183594 219.792969 L 264.292969 170.570312 C 265.03125 170.136719 265.738281 169.691406 266.429688 169.222656 C 272.210938 173.15625 279.019531 175.28125 286.160156 175.28125 C 287.480469 175.28125 288.707031 175.214844 289.847656 175.085938 C 290.304688 175.042969 290.765625 174.992188 291.207031 174.917969 L 303.941406 254.5625 L 303.964844 254.714844 L 304.367188 257.191406 L 304.367188 257.234375 C 305.839844 275.132812 298.296875 291.742188 285.582031 302.59375 C 285.539062 302.636719 285.484375 302.679688 285.445312 302.703125 C 284.847656 303.21875 284.234375 303.707031 283.605469 304.195312 Z M 293.238281 333.390625 "/><path style=" stroke:none;fill-rule:nonzero;fill:#00b8d4;fill-opacity:1;" d="M 157.953125 220.800781 C 158.539062 221.386719 159.066406 222.023438 159.527344 222.714844 C 159.988281 223.40625 160.375 224.132812 160.691406 224.898438 C 161.011719 225.667969 161.25 226.457031 161.414062 227.269531 C 161.574219 228.082031 161.65625 228.90625 161.65625 229.734375 C 161.65625 230.566406 161.574219 231.386719 161.414062 232.199219 C 161.25 233.015625 161.011719 233.804688 160.691406 234.570312 C 160.375 235.339844 159.988281 236.066406 159.527344 236.757812 C 159.066406 237.445312 158.539062 238.085938 157.953125 238.671875 C 157.367188 239.257812 156.730469 239.78125 156.039062 240.242188 C 155.347656 240.703125 154.621094 241.09375 153.855469 241.410156 C 153.085938 241.726562 152.296875 241.96875 151.484375 242.128906 C 150.667969 242.292969 149.847656 242.371094 149.019531 242.371094 C 148.1875 242.371094 147.367188 242.292969 146.554688 242.128906 C 145.738281 241.96875 144.949219 241.726562 144.183594 241.410156 C 143.414062 241.09375 142.6875 240.703125 141.996094 240.242188 C 141.308594 239.78125 140.667969 239.257812 140.082031 238.671875 C 139.496094 238.085938 138.972656 237.445312 138.511719 236.757812 C 138.050781 236.066406 137.660156 235.339844 137.34375 234.570312 C 137.027344 233.804688 136.785156 233.015625 136.625 232.199219 C 136.460938 231.386719 136.382812 230.566406 136.382812 229.734375 C 136.382812 228.90625 136.460938 228.082031 136.625 227.269531 C 136.785156 226.457031 137.027344 225.667969 137.34375 224.898438 C 137.660156 224.132812 138.050781 223.40625 138.511719 222.714844 C 138.972656 222.023438 139.496094 221.386719 140.082031 220.800781 C 140.667969 220.214844 141.308594 219.6875 141.996094 219.226562 C 142.6875 218.765625 143.414062 218.378906 144.183594 218.058594 C 144.949219 217.742188 145.738281 217.503906 146.554688 217.339844 C 147.367188 217.179688 148.1875 217.097656 149.019531 217.097656 C 149.847656 217.097656 150.667969 217.179688 151.484375 217.339844 C 152.296875 217.503906 153.085938 217.742188 153.855469 218.058594 C 154.621094 218.378906 155.347656 218.765625 156.039062 219.226562 C 156.730469 219.6875 157.367188 220.214844 157.953125 220.800781 Z M 157.953125 220.800781 "/><path style=" stroke:none;fill-rule:nonzero;fill:#00b8d4;fill-opacity:1;" d="M 199.308594 226.804688 C 199.496094 227.613281 199.609375 228.429688 199.636719 229.261719 C 199.667969 230.089844 199.613281 230.914062 199.480469 231.734375 C 199.347656 232.550781 199.136719 233.351562 198.847656 234.128906 C 198.558594 234.90625 198.195312 235.644531 197.757812 236.351562 C 197.320312 237.058594 196.820312 237.714844 196.253906 238.320312 C 195.691406 238.929688 195.070312 239.476562 194.398438 239.960938 C 193.726562 240.445312 193.011719 240.859375 192.257812 241.207031 C 191.5 241.550781 190.71875 241.816406 189.914062 242.007812 C 189.105469 242.199219 188.285156 242.308594 187.457031 242.339844 C 186.628906 242.367188 185.804688 242.316406 184.984375 242.183594 C 184.167969 242.050781 183.367188 241.839844 182.589844 241.546875 C 181.8125 241.257812 181.070312 240.894531 180.367188 240.460938 C 179.660156 240.023438 179.003906 239.523438 178.394531 238.957031 C 177.789062 238.390625 177.242188 237.773438 176.757812 237.097656 C 176.273438 236.425781 175.859375 235.710938 175.511719 234.957031 C 175.167969 234.203125 174.902344 233.421875 174.710938 232.613281 C 174.519531 231.804688 174.410156 230.988281 174.378906 230.160156 C 174.351562 229.328125 174.402344 228.503906 174.535156 227.6875 C 174.667969 226.867188 174.878906 226.070312 175.167969 225.292969 C 175.460938 224.515625 175.824219 223.773438 176.257812 223.066406 C 176.695312 222.359375 177.195312 221.703125 177.761719 221.097656 C 178.328125 220.488281 178.945312 219.945312 179.617188 219.457031 C 180.292969 218.972656 181.007812 218.558594 181.761719 218.214844 C 182.515625 217.871094 183.296875 217.601562 184.105469 217.410156 C 184.910156 217.21875 185.730469 217.109375 186.558594 217.082031 C 187.390625 217.050781 188.214844 217.101562 189.03125 217.234375 C 189.851562 217.367188 190.648438 217.578125 191.425781 217.871094 C 192.203125 218.160156 192.945312 218.523438 193.652344 218.960938 C 194.355469 219.394531 195.015625 219.898438 195.621094 220.460938 C 196.226562 221.027344 196.773438 221.648438 197.257812 222.320312 C 197.746094 222.992188 198.160156 223.707031 198.503906 224.460938 C 198.847656 225.214844 199.117188 225.996094 199.308594 226.804688 Z M 199.308594 226.804688 "/><path style=" stroke:none;fill-rule:nonzero;fill:#00b8d4;fill-opacity:1;" d="M 237.296875 226.804688 C 237.488281 227.609375 237.597656 228.429688 237.625 229.257812 C 237.65625 230.085938 237.605469 230.910156 237.472656 231.730469 C 237.339844 232.550781 237.125 233.347656 236.835938 234.125 C 236.546875 234.902344 236.183594 235.644531 235.746094 236.351562 C 235.3125 237.054688 234.808594 237.710938 234.246094 238.320312 C 233.679688 238.925781 233.058594 239.472656 232.386719 239.957031 C 231.714844 240.441406 231 240.859375 230.246094 241.203125 C 229.488281 241.546875 228.707031 241.816406 227.902344 242.003906 C 227.09375 242.195312 226.277344 242.304688 225.445312 242.335938 C 224.617188 242.363281 223.792969 242.3125 222.972656 242.179688 C 222.15625 242.046875 221.355469 241.835938 220.578125 241.546875 C 219.800781 241.257812 219.058594 240.894531 218.355469 240.457031 C 217.648438 240.019531 216.992188 239.519531 216.386719 238.953125 C 215.777344 238.390625 215.230469 237.769531 214.746094 237.097656 C 214.261719 236.421875 213.847656 235.710938 213.5 234.953125 C 213.15625 234.199219 212.890625 233.417969 212.699219 232.609375 C 212.507812 231.804688 212.398438 230.984375 212.367188 230.15625 C 212.339844 229.328125 212.390625 228.503906 212.523438 227.683594 C 212.65625 226.863281 212.867188 226.066406 213.15625 225.289062 C 213.449219 224.511719 213.8125 223.769531 214.246094 223.0625 C 214.683594 222.359375 215.183594 221.703125 215.75 221.09375 C 216.316406 220.488281 216.933594 219.941406 217.609375 219.457031 C 218.28125 218.972656 218.996094 218.554688 219.75 218.210938 C 220.503906 217.867188 221.285156 217.597656 222.09375 217.410156 C 222.902344 217.21875 223.71875 217.109375 224.546875 217.078125 C 225.378906 217.046875 226.203125 217.101562 227.019531 217.234375 C 227.839844 217.367188 228.636719 217.578125 229.414062 217.867188 C 230.191406 218.15625 230.933594 218.519531 231.640625 218.957031 C 232.347656 219.394531 233.003906 219.894531 233.609375 220.460938 C 234.21875 221.023438 234.761719 221.644531 235.25 222.316406 C 235.734375 222.992188 236.148438 223.703125 236.492188 224.460938 C 236.835938 225.214844 237.105469 225.996094 237.296875 226.804688 Z M 237.296875 226.804688 "/></g></svg>