<svg xmlns="http://www.w3.org/2000/svg" xmlns:xlink="http://www.w3.org/1999/xlink" width="512" zoomAndPan="magnify" viewBox="0 0 384 383.999986" height="512" preserveAspectRatio="xMidYMid meet" version="1.2"><defs><clipPath id="c613ba3dff"><path d="M 0 73.5 L 0 310.5 C 0 351.09375 32.90625 384 73.5 384 L 310.5 384 C 351.09375 384 384 351.09375 384 310.5 L 384 73.5 C 384 32.90625 351.09375 0 310.5 0 L 73.5 0 C 32.90625 0 0 32.90625 0 73.5 Z M 0 73.5 "/></clipPath><clipPath id="0c4f80339c"><path d="M 71 211 L 80 211 L 80 260 L 71 260 Z M 71 211 "/></clipPath><clipPath id="e15c1e7981"><path d="M 0 73.5 L 0 310.5 C 0 351.09375 32.90625 384 73.5 384 L 310.5 384 C 351.09375 384 384 351.09375 384 310.5 L 384 73.5 C 384 32.90625 351.09375 0 310.5 0 L 73.5 0 C 32.90625 0 0 32.90625 0 73.5 Z M 0 73.5 "/></clipPath><clipPath id="ca0185865a"><path d="M 151 17 L 248 17 L 248 73 L 151 73 Z M 151 17 "/></clipPath><clipPath id="913f2cf4c4"><path d="M 0 73.5 L 0 310.5 C 0 351.09375 32.90625 384 73.5 384 L 310.5 384 C 351.09375 384 384 351.09375 384 310.5 L 384 73.5 C 384 32.90625 351.09375 0 310.5 0 L 73.5 0 C 32.90625 0 0 32.90625 0 73.5 Z M 0 73.5 "/></clipPath><clipPath id="a086d14e7a"><path d="M 135 17 L 178 17 L 178 73 L 135 73 Z M 135 17 "/></clipPath><clipPath id="e2dda61165"><path d="M 0 73.5 L 0 310.5 C 0 351.09375 32.90625 384 73.5 384 L 310.5 384 C 351.09375 384 384 351.09375 384 310.5 L 384 73.5 C 384 32.90625 351.09375 0 310.5 0 L 73.5 0 C 32.90625 0 0 32.90625 0 73.5 Z M 0 73.5 "/></clipPath><clipPath id="52e269a671"><path d="M 64 75 L 320 75 L 320 170 L 64 170 Z M 64 75 "/></clipPath><clipPath id="2b6bde0268"><path d="M 0 73.5 L 0 310.5 C 0 351.09375 32.90625 384 73.5 384 L 310.5 384 C 351.09375 384 384 351.09375 384 310.5 L 384 73.5 C 384 32.90625 351.09375 0 310.5 0 L 73.5 0 C 32.90625 0 0 32.90625 0 73.5 Z M 0 73.5 "/></clipPath><clipPath id="5408eab057"><path d="M 71 173 L 312 173 L 312 367 L 71 367 Z M 71 173 "/></clipPath><clipPath id="3367af80de"><path d="M 0 73.5 L 0 310.5 C 0 351.09375 32.90625 384 73.5 384 L 310.5 384 C 351.09375 384 384 351.09375 384 310.5 L 384 73.5 C 384 32.90625 351.09375 0 310.5 0 L 73.5 0 C 32.90625 0 0 32.90625 0 73.5 Z M 0 73.5 "/></clipPath><clipPath id="dfa953803f"><path d="M 139 222 L 166 222 L 166 249 L 139 249 Z M 139 222 "/></clipPath><clipPath id="aa9b7c1cb9"><path d="M 0 73.5 L 0 310.5 C 0 351.09375 32.90625 384 73.5 384 L 310.5 384 C 351.09375 384 384 351.09375 384 310.5 L 384 73.5 C 384 32.90625 351.09375 0 310.5 0 L 73.5 0 C 32.90625 0 0 32.90625 0 73.5 Z M 0 73.5 "/></clipPath><clipPath id="593a393ee5"><path d="M 178 222 L 205 222 L 205 249 L 178 249 Z M 178 222 "/></clipPath><clipPath id="99b6144308"><path d="M 0 73.5 L 0 310.5 C 0 351.09375 32.90625 384 73.5 384 L 310.5 384 C 351.09375 384 384 351.09375 384 310.5 L 384 73.5 C 384 32.90625 351.09375 0 310.5 0 L 73.5 0 C 32.90625 0 0 32.90625 0 73.5 Z M 0 73.5 "/></clipPath><clipPath id="4022f0b4d3"><path d="M 217 222 L 244 222 L 244 249 L 217 249 Z M 217 222 "/></clipPath><clipPath id="a26b8cd93d"><path d="M 0 73.5 L 0 310.5 C 0 351.09375 32.90625 384 73.5 384 L 310.5 384 C 351.09375 384 384 351.09375 384 310.5 L 384 73.5 C 384 32.90625 351.09375 0 310.5 0 L 73.5 0 C 32.90625 0 0 32.90625 0 73.5 Z M 0 73.5 "/></clipPath></defs><g id="1d87fa68b7"><g clip-rule="nonzero" clip-path="url(#c613ba3dff)"><rect x="0" width="384" y="0" height="383.999986" style="fill:#38b6ff;fill-opacity:1;stroke:none;"/></g><g clip-rule="nonzero" clip-path="url(#0c4f80339c)"><g clip-rule="nonzero" clip-path="url(#e15c1e7981)"><path style=" stroke:none;fill-rule:nonzero;fill:#ffffff;fill-opacity:1;" d="M 79.488281 211.347656 L 71.835938 259.164062 L 79.472656 211.332031 Z M 79.488281 211.347656 "/></g></g><g clip-rule="nonzero" clip-path="url(#ca0185865a)"><g clip-rule="nonzero" clip-path="url(#913f2cf4c4)"><path style=" stroke:none;fill-rule:nonzero;fill:#ffffff;fill-opacity:1;" d="M 165.625 30.539062 C 161.179688 35.441406 157.972656 41.527344 156.53125 48.363281 L 151.375 72.867188 L 161.269531 72.867188 L 166.042969 50.175781 C 168.664062 37.726562 179.195312 28.636719 191.710938 27.695312 L 191.714844 27.695312 C 192.421875 27.640625 193.132812 27.613281 193.84375 27.613281 L 205.238281 27.613281 C 209.710938 27.613281 213.988281 28.65625 217.792969 30.539062 C 225.425781 34.296875 231.195312 41.402344 233.042969 50.175781 L 237.824219 72.867188 L 247.714844 72.867188 L 242.558594 48.363281 C 238.824219 30.632812 223.179688 17.945312 205.066406 17.945312 L 194.027344 17.945312 C 193.257812 17.945312 192.488281 17.972656 191.730469 18.011719 L 191.710938 18.011719 C 181.484375 18.625 172.203125 23.28125 165.625 30.539062 Z M 165.625 30.539062 "/></g></g><g clip-rule="nonzero" clip-path="url(#a086d14e7a)"><g clip-rule="nonzero" clip-path="url(#e2dda61165)"><path style=" stroke:none;fill-rule:nonzero;fill:#ffffff;fill-opacity:1;" d="M 150.363281 50.179688 C 151.402344 45.265625 153.671875 40.863281 156.808594 37.289062 C 159.453125 32.121094 163.15625 27.503906 167.703125 23.820312 C 170.65625 21.425781 173.910156 19.457031 177.363281 17.960938 C 159.667969 18.40625 144.519531 30.960938 140.863281 48.371094 L 135.703125 72.871094 L 145.59375 72.871094 Z M 150.363281 50.179688 "/></g></g><g clip-rule="nonzero" clip-path="url(#52e269a671)"><g clip-rule="nonzero" clip-path="url(#2b6bde0268)"><path style=" stroke:none;fill-rule:nonzero;fill:#ffffff;fill-opacity:1;" d="M 316.402344 118.496094 L 306.753906 101.777344 L 302.753906 94.863281 L 298.910156 88.203125 L 291.765625 75.851562 L 92.140625 75.851562 L 84.992188 88.203125 L 81.164062 94.863281 L 77.164062 101.777344 L 67.5 118.496094 L 64.941406 122.933594 L 64.941406 143.535156 C 64.941406 144.792969 65.023438 146.011719 65.191406 147.207031 L 65.191406 147.222656 C 66.003906 152.933594 68.664062 158.039062 72.5625 161.9375 C 76.621094 165.992188 82.027344 168.726562 88.0625 169.394531 C 89.003906 169.496094 89.972656 169.554688 90.949219 169.554688 C 99.105469 169.554688 106.386719 165.796875 111.15625 159.921875 C 111.71875 160.621094 112.339844 161.300781 112.976562 161.945312 C 113.730469 162.699219 114.527344 163.394531 115.378906 164.0625 C 115.636719 164.273438 115.921875 164.472656 116.191406 164.671875 C 120.464844 167.746094 125.699219 169.554688 131.359375 169.554688 C 139.527344 169.554688 146.796875 165.796875 151.5625 159.921875 C 152.132812 160.621094 152.746094 161.300781 153.386719 161.945312 C 158.097656 166.640625 164.589844 169.550781 171.773438 169.550781 C 179.929688 169.550781 187.207031 165.796875 191.976562 159.921875 C 192.542969 160.621094 193.160156 161.300781 193.796875 161.945312 C 198.496094 166.640625 205.011719 169.550781 212.179688 169.550781 C 220.347656 169.550781 227.621094 165.796875 232.386719 159.921875 C 232.953125 160.621094 233.570312 161.300781 234.207031 161.945312 C 238.902344 166.640625 245.425781 169.550781 252.59375 169.550781 C 258.257812 169.550781 263.496094 167.746094 267.761719 164.671875 C 267.886719 164.589844 268.003906 164.5 268.117188 164.421875 C 269.851562 163.121094 271.429688 161.613281 272.796875 159.921875 C 273.363281 160.621094 273.976562 161.300781 274.621094 161.945312 C 279.328125 166.640625 285.820312 169.550781 293.003906 169.550781 C 293.929688 169.550781 294.839844 169.511719 295.730469 169.410156 C 307.558594 168.175781 317.035156 159.011719 318.742188 147.34375 C 318.929688 146.105469 319.011719 144.824219 319.011719 143.542969 L 319.011719 123.078125 Z M 84.226562 114.269531 L 99.285156 88.195312 L 284.640625 88.195312 L 299.769531 114.40625 L 302.132812 118.496094 L 81.792969 118.496094 Z M 306.699219 143.535156 C 306.699219 147.3125 305.164062 150.726562 302.6875 153.1875 C 300.394531 155.488281 297.285156 156.972656 293.824219 157.171875 C 293.566406 157.1875 293.300781 157.1875 293.039062 157.1875 C 287.332031 157.1875 282.441406 153.671875 280.402344 148.6875 C 279.136719 145.605469 276.175781 143.535156 272.828125 143.535156 L 272.621094 143.535156 C 269.289062 143.535156 266.285156 145.570312 265.058594 148.671875 C 264.425781 150.296875 263.511719 151.960938 262.289062 153.1875 C 262.105469 153.371094 261.921875 153.542969 261.71875 153.710938 C 259.316406 155.871094 256.128906 157.179688 252.628906 157.179688 C 246.921875 157.179688 242.027344 153.667969 239.992188 148.683594 C 238.726562 145.597656 235.765625 143.53125 232.421875 143.53125 C 229.089844 143.53125 226.117188 145.597656 224.859375 148.683594 C 224.164062 150.375 223.136719 151.914062 221.871094 153.179688 C 219.394531 155.65625 215.980469 157.179688 212.207031 157.179688 C 206.5 157.179688 201.609375 153.667969 199.570312 148.683594 C 198.304688 145.597656 195.34375 143.53125 191.996094 143.53125 C 190.332031 143.53125 188.753906 144.046875 187.429688 144.957031 C 186.121094 145.851562 185.066406 147.132812 184.441406 148.683594 C 183.742188 150.375 182.714844 151.914062 181.441406 153.179688 C 178.980469 155.65625 175.5625 157.179688 171.792969 157.179688 C 166.082031 157.179688 161.191406 153.667969 159.15625 148.683594 C 157.886719 145.597656 154.929688 143.53125 151.578125 143.53125 C 149.914062 143.53125 148.335938 144.046875 147.011719 144.957031 C 145.703125 145.851562 144.652344 147.132812 144.023438 148.683594 C 143.328125 150.375 142.300781 151.914062 141.023438 153.179688 C 138.5625 155.65625 135.148438 157.179688 131.375 157.179688 C 127.886719 157.179688 124.574219 155.996094 122.285156 153.710938 C 120.636719 152.0625 119.5625 150.222656 118.882812 148.542969 C 117.648438 145.484375 114.605469 143.53125 111.300781 143.53125 L 111.171875 143.53125 C 107.824219 143.53125 104.867188 145.597656 103.597656 148.683594 C 102.914062 150.375 101.886719 151.914062 100.609375 153.179688 C 98.148438 155.65625 94.730469 157.179688 90.960938 157.179688 C 90.515625 157.179688 90.089844 157.164062 89.664062 157.121094 C 82.730469 156.46875 77.3125 150.628906 77.3125 143.53125 L 77.3125 130.851562 L 306.699219 130.851562 Z M 306.699219 143.535156 "/></g></g><g clip-rule="nonzero" clip-path="url(#5408eab057)"><g clip-rule="nonzero" clip-path="url(#3367af80de)"><path style=" stroke:none;fill-rule:nonzero;fill:#ffffff;fill-opacity:1;" d="M 300.277344 341.390625 C 302.753906 348.886719 300.375 356.933594 294.226562 361.882812 C 290.789062 364.644531 286.644531 366.050781 282.488281 366.050781 C 279.203125 366.050781 275.914062 365.179688 272.910156 363.402344 L 204.671875 323.011719 L 126.28125 323.011719 C 112.730469 323.011719 100.480469 318.175781 90.972656 310.234375 C 90.828125 310.121094 90.683594 309.992188 90.542969 309.867188 C 78.21875 299.363281 70.652344 283.597656 71.148438 266.421875 C 71.207031 264.039062 71.4375 261.636719 71.828125 259.203125 L 71.828125 259.160156 L 79.484375 211.34375 L 84.652344 178.9375 C 85.4375 179.097656 86.21875 179.207031 87.011719 179.296875 C 88.347656 179.4375 89.671875 179.503906 90.957031 179.503906 C 98.285156 179.503906 105.285156 177.316406 111.175781 173.300781 C 111.542969 173.550781 111.914062 173.796875 112.285156 174.023438 L 103.160156 231.003906 L 101.066406 244.023438 L 97.921875 263.6875 L 97.878906 263.988281 C 97.46875 266.792969 97.46875 269.535156 97.851562 272.179688 C 99.773438 285.714844 111.410156 296.5 125.914062 296.5 L 209.726562 296.5 C 210.949219 296.5 212.148438 296.828125 213.195312 297.453125 L 256.359375 322.996094 L 268.953125 330.457031 L 266.222656 322.1875 L 260.28125 304.113281 C 259.039062 300.378906 261.226562 296.484375 265.003906 295.375 C 265.027344 295.375 265.042969 295.359375 265.070312 295.359375 C 270.46875 293.765625 275.164062 290.636719 278.679688 286.480469 C 279.742188 285.210938 280.710938 283.871094 281.535156 282.4375 C 281.949219 281.734375 282.332031 281.011719 282.6875 280.273438 C 284.667969 276.117188 285.652344 271.4375 285.347656 266.550781 L 285.332031 266.425781 L 278.714844 225.066406 L 270.636719 174.664062 C 271.390625 174.21875 272.117188 173.765625 272.824219 173.285156 C 278.742188 177.3125 285.714844 179.488281 293.027344 179.488281 C 294.378906 179.488281 295.636719 179.421875 296.804688 179.289062 C 297.273438 179.242188 297.742188 179.191406 298.195312 179.117188 L 311.234375 260.671875 L 311.261719 260.828125 L 311.671875 263.363281 L 311.671875 263.40625 C 313.179688 281.734375 305.457031 298.742188 292.4375 309.855469 C 292.390625 309.898438 292.335938 309.945312 292.296875 309.96875 C 291.683594 310.496094 291.054688 310.996094 290.410156 311.496094 Z M 300.277344 341.390625 "/></g></g><g clip-rule="nonzero" clip-path="url(#dfa953803f)"><g clip-rule="nonzero" clip-path="url(#aa9b7c1cb9)"><path style=" stroke:none;fill-rule:nonzero;fill:#ffffff;fill-opacity:1;" d="M 161.742188 226.101562 C 162.34375 226.699219 162.882812 227.351562 163.355469 228.058594 C 163.828125 228.769531 164.222656 229.511719 164.546875 230.296875 C 164.875 231.082031 165.121094 231.890625 165.289062 232.722656 C 165.453125 233.554688 165.535156 234.398438 165.535156 235.246094 C 165.535156 236.101562 165.453125 236.941406 165.289062 237.773438 C 165.121094 238.609375 164.875 239.414062 164.546875 240.199219 C 164.222656 240.988281 163.828125 241.730469 163.355469 242.441406 C 162.882812 243.144531 162.34375 243.800781 161.742188 244.398438 C 161.144531 245 160.492188 245.535156 159.785156 246.007812 C 159.074219 246.480469 158.332031 246.878906 157.546875 247.203125 C 156.761719 247.527344 155.953125 247.777344 155.121094 247.941406 C 154.285156 248.109375 153.445312 248.1875 152.597656 248.1875 C 151.742188 248.1875 150.902344 248.109375 150.070312 247.941406 C 149.234375 247.777344 148.429688 247.527344 147.644531 247.203125 C 146.855469 246.878906 146.113281 246.480469 145.402344 246.007812 C 144.699219 245.535156 144.042969 245 143.445312 244.398438 C 142.84375 243.800781 142.308594 243.144531 141.835938 242.441406 C 141.363281 241.730469 140.964844 240.988281 140.640625 240.199219 C 140.316406 239.414062 140.066406 238.609375 139.902344 237.773438 C 139.734375 236.941406 139.65625 236.101562 139.65625 235.246094 C 139.65625 234.398438 139.734375 233.554688 139.902344 232.722656 C 140.066406 231.890625 140.316406 231.082031 140.640625 230.296875 C 140.964844 229.511719 141.363281 228.769531 141.835938 228.058594 C 142.308594 227.351562 142.84375 226.699219 143.445312 226.101562 C 144.042969 225.5 144.699219 224.960938 145.402344 224.488281 C 146.113281 224.015625 146.855469 223.621094 147.644531 223.292969 C 148.429688 222.96875 149.234375 222.722656 150.070312 222.554688 C 150.902344 222.390625 151.742188 222.308594 152.597656 222.308594 C 153.445312 222.308594 154.285156 222.390625 155.121094 222.554688 C 155.953125 222.722656 156.761719 222.96875 157.546875 223.292969 C 158.332031 223.621094 159.074219 224.015625 159.785156 224.488281 C 160.492188 224.960938 161.144531 225.5 161.742188 226.101562 Z M 161.742188 226.101562 "/></g></g><g clip-rule="nonzero" clip-path="url(#593a393ee5)"><g clip-rule="nonzero" clip-path="url(#99b6144308)"><path style=" stroke:none;fill-rule:nonzero;fill:#ffffff;fill-opacity:1;" d="M 204.09375 232.246094 C 204.285156 233.074219 204.398438 233.910156 204.429688 234.765625 C 204.460938 235.613281 204.402344 236.457031 204.269531 237.296875 C 204.132812 238.132812 203.914062 238.953125 203.621094 239.746094 C 203.324219 240.542969 202.953125 241.300781 202.503906 242.023438 C 202.054688 242.746094 201.542969 243.421875 200.964844 244.039062 C 200.386719 244.664062 199.753906 245.222656 199.0625 245.71875 C 198.375 246.214844 197.644531 246.640625 196.871094 246.996094 C 196.097656 247.347656 195.296875 247.621094 194.472656 247.816406 C 193.644531 248.011719 192.804688 248.125 191.957031 248.15625 C 191.109375 248.183594 190.265625 248.132812 189.425781 247.996094 C 188.589844 247.859375 187.769531 247.644531 186.972656 247.34375 C 186.175781 247.046875 185.414062 246.675781 184.695312 246.230469 C 183.972656 245.785156 183.300781 245.273438 182.675781 244.691406 C 182.054688 244.113281 181.496094 243.480469 181 242.789062 C 180.503906 242.101562 180.078125 241.367188 179.722656 240.597656 C 179.371094 239.824219 179.101562 239.023438 178.902344 238.195312 C 178.707031 237.367188 178.597656 236.53125 178.5625 235.683594 C 178.535156 234.832031 178.589844 233.988281 178.722656 233.152344 C 178.859375 232.3125 179.074219 231.496094 179.371094 230.699219 C 179.671875 229.902344 180.042969 229.144531 180.488281 228.421875 C 180.9375 227.695312 181.449219 227.023438 182.027344 226.402344 C 182.609375 225.78125 183.238281 225.222656 183.929688 224.722656 C 184.621094 224.226562 185.351562 223.804688 186.125 223.453125 C 186.894531 223.101562 187.695312 222.824219 188.523438 222.628906 C 189.347656 222.433594 190.1875 222.320312 191.035156 222.292969 C 191.886719 222.261719 192.730469 222.3125 193.566406 222.449219 C 194.40625 222.582031 195.222656 222.800781 196.019531 223.101562 C 196.816406 223.394531 197.574219 223.769531 198.300781 224.214844 C 199.019531 224.660156 199.695312 225.175781 200.316406 225.753906 C 200.9375 226.332031 201.496094 226.96875 201.992188 227.65625 C 202.492188 228.34375 202.914062 229.074219 203.269531 229.847656 C 203.621094 230.621094 203.894531 231.421875 204.09375 232.246094 Z M 204.09375 232.246094 "/></g></g><g clip-rule="nonzero" clip-path="url(#4022f0b4d3)"><g clip-rule="nonzero" clip-path="url(#a26b8cd93d)"><path style=" stroke:none;fill-rule:nonzero;fill:#ffffff;fill-opacity:1;" d="M 242.992188 232.246094 C 243.1875 233.070312 243.300781 233.910156 243.328125 234.761719 C 243.359375 235.609375 243.308594 236.453125 243.171875 237.292969 C 243.035156 238.132812 242.816406 238.949219 242.519531 239.742188 C 242.222656 240.539062 241.851562 241.300781 241.402344 242.023438 C 240.960938 242.742188 240.445312 243.414062 239.867188 244.039062 C 239.289062 244.660156 238.652344 245.21875 237.964844 245.714844 C 237.277344 246.210938 236.542969 246.640625 235.773438 246.992188 C 234.996094 247.34375 234.195312 247.621094 233.371094 247.8125 C 232.542969 248.007812 231.707031 248.121094 230.855469 248.152344 C 230.007812 248.179688 229.164062 248.128906 228.324219 247.992188 C 227.488281 247.855469 226.667969 247.640625 225.871094 247.34375 C 225.074219 247.046875 224.316406 246.675781 223.597656 246.226562 C 222.871094 245.78125 222.199219 245.269531 221.578125 244.6875 C 220.957031 244.113281 220.394531 243.476562 219.898438 242.789062 C 219.402344 242.097656 218.980469 241.367188 218.625 240.59375 C 218.273438 239.820312 218 239.019531 217.804688 238.191406 C 217.609375 237.367188 217.496094 236.527344 217.464844 235.679688 C 217.4375 234.832031 217.488281 233.988281 217.625 233.148438 C 217.761719 232.308594 217.976562 231.492188 218.273438 230.695312 C 218.570312 229.898438 218.945312 229.140625 219.386719 228.414062 C 219.835938 227.695312 220.347656 227.023438 220.929688 226.398438 C 221.507812 225.78125 222.140625 225.21875 222.832031 224.722656 C 223.519531 224.226562 224.253906 223.800781 225.023438 223.449219 C 225.796875 223.097656 226.597656 222.820312 227.425781 222.628906 C 228.253906 222.433594 229.089844 222.320312 229.9375 222.289062 C 230.789062 222.257812 231.632812 222.3125 232.46875 222.449219 C 233.308594 222.582031 234.125 222.800781 234.921875 223.097656 C 235.714844 223.390625 236.476562 223.765625 237.199219 224.210938 C 237.925781 224.660156 238.597656 225.171875 239.214844 225.753906 C 239.839844 226.328125 240.394531 226.964844 240.894531 227.652344 C 241.390625 228.34375 241.816406 229.070312 242.167969 229.847656 C 242.519531 230.621094 242.796875 231.421875 242.992188 232.246094 Z M 242.992188 232.246094 "/></g></g></g></svg>