<svg xmlns="http://www.w3.org/2000/svg" xmlns:xlink="http://www.w3.org/1999/xlink" width="500" zoomAndPan="magnify" viewBox="0 0 375 374.999991" height="500" preserveAspectRatio="xMidYMid meet" version="1.2"><g id="03bae32e3f"><rect x="0" width="375" y="0" height="374.999991" style="fill:#ffffff;fill-opacity:1;stroke:none;"/><path style=" stroke:none;fill-rule:nonzero;fill:#00b8d4;fill-opacity:1;" d="M 111.277344 200.609375 L 106.089844 233.003906 L 111.265625 200.597656 Z M 111.277344 200.609375 "/><path style=" stroke:none;fill-rule:nonzero;fill:#00b8d4;fill-opacity:1;" d="M 169.632812 78.113281 C 166.621094 81.433594 164.445312 85.558594 163.472656 90.191406 L 159.980469 106.789062 L 166.679688 106.789062 L 169.917969 91.417969 C 171.691406 82.984375 178.828125 76.824219 187.304688 76.1875 L 187.308594 76.1875 C 187.785156 76.148438 188.269531 76.132812 188.753906 76.132812 L 196.472656 76.132812 C 199.5 76.132812 202.398438 76.839844 204.976562 78.113281 C 210.144531 80.65625 214.058594 85.472656 215.308594 91.417969 L 218.546875 106.789062 L 225.25 106.789062 L 221.753906 90.191406 C 219.226562 78.175781 208.625 69.582031 196.355469 69.582031 L 188.875 69.582031 C 188.351562 69.582031 187.832031 69.597656 187.320312 69.628906 L 187.304688 69.628906 C 180.378906 70.042969 174.089844 73.195312 169.632812 78.113281 Z M 169.632812 78.113281 "/><path style=" stroke:none;fill-rule:nonzero;fill:#00b8d4;fill-opacity:1;" d="M 159.292969 91.421875 C 159.996094 88.089844 161.535156 85.105469 163.660156 82.6875 C 165.449219 79.1875 167.957031 76.058594 171.042969 73.5625 C 173.042969 71.9375 175.246094 70.605469 177.585938 69.589844 C 165.597656 69.894531 155.335938 78.398438 152.855469 90.195312 L 149.363281 106.792969 L 156.0625 106.792969 Z M 159.292969 91.421875 "/><path style=" stroke:none;fill-rule:nonzero;fill:#00b8d4;fill-opacity:1;" d="M 271.785156 137.703125 L 265.246094 126.375 L 262.535156 121.691406 L 259.933594 117.179688 L 255.089844 108.8125 L 119.847656 108.8125 L 115.003906 117.179688 L 112.414062 121.691406 L 109.703125 126.375 L 103.15625 137.703125 L 101.417969 140.710938 L 101.417969 154.667969 C 101.417969 155.519531 101.476562 156.347656 101.589844 157.15625 L 101.589844 157.167969 C 102.140625 161.035156 103.941406 164.496094 106.585938 167.136719 C 109.332031 169.882812 113 171.734375 117.085938 172.1875 C 117.722656 172.253906 118.378906 172.292969 119.039062 172.292969 C 124.566406 172.292969 129.5 169.75 132.730469 165.769531 C 133.113281 166.242188 133.53125 166.703125 133.964844 167.136719 C 134.476562 167.652344 135.015625 168.125 135.59375 168.574219 C 135.765625 168.71875 135.960938 168.851562 136.144531 168.988281 C 139.035156 171.070312 142.585938 172.292969 146.417969 172.292969 C 151.953125 172.292969 156.878906 169.75 160.109375 165.769531 C 160.492188 166.242188 160.910156 166.703125 161.339844 167.136719 C 164.53125 170.320312 168.929688 172.292969 173.796875 172.292969 C 179.324219 172.292969 184.253906 169.75 187.484375 165.769531 C 187.871094 166.242188 188.289062 166.703125 188.71875 167.136719 C 191.902344 170.320312 196.320312 172.292969 201.175781 172.292969 C 206.707031 172.292969 211.632812 169.75 214.863281 165.769531 C 215.246094 166.242188 215.664062 166.703125 216.097656 167.136719 C 219.28125 170.320312 223.695312 172.292969 228.550781 172.292969 C 232.390625 172.292969 235.9375 171.070312 238.828125 168.988281 C 238.917969 168.929688 238.992188 168.871094 239.070312 168.816406 C 240.246094 167.9375 241.316406 166.914062 242.242188 165.769531 C 242.625 166.242188 243.039062 166.703125 243.476562 167.136719 C 246.664062 170.320312 251.0625 172.292969 255.929688 172.292969 C 256.554688 172.292969 257.175781 172.265625 257.78125 172.199219 C 265.792969 171.359375 272.210938 165.152344 273.371094 157.246094 C 273.492188 156.410156 273.550781 155.539062 273.550781 154.671875 L 273.550781 140.808594 Z M 114.488281 134.839844 L 124.6875 117.175781 L 250.265625 117.175781 L 260.515625 134.933594 L 262.117188 137.703125 L 112.835938 137.703125 Z M 265.210938 154.667969 C 265.210938 157.226562 264.167969 159.539062 262.492188 161.207031 C 260.941406 162.765625 258.832031 163.769531 256.488281 163.90625 C 256.316406 163.914062 256.132812 163.914062 255.957031 163.914062 C 252.089844 163.914062 248.773438 161.535156 247.394531 158.160156 C 246.535156 156.066406 244.53125 154.667969 242.261719 154.667969 L 242.121094 154.667969 C 239.863281 154.667969 237.828125 156.046875 237 158.148438 C 236.570312 159.246094 235.949219 160.375 235.121094 161.207031 C 234.996094 161.332031 234.871094 161.449219 234.738281 161.5625 C 233.109375 163.027344 230.945312 163.914062 228.578125 163.914062 C 224.710938 163.914062 221.394531 161.53125 220.015625 158.15625 C 219.160156 156.066406 217.152344 154.664062 214.886719 154.664062 C 212.628906 154.664062 210.613281 156.066406 209.765625 158.15625 C 209.292969 159.300781 208.597656 160.34375 207.742188 161.203125 C 206.0625 162.878906 203.75 163.914062 201.191406 163.914062 C 197.324219 163.914062 194.011719 161.53125 192.628906 158.15625 C 191.773438 156.066406 189.765625 154.664062 187.5 154.664062 C 186.371094 154.664062 185.300781 155.011719 184.40625 155.628906 C 183.519531 156.238281 182.804688 157.105469 182.378906 158.15625 C 181.90625 159.300781 181.210938 160.34375 180.347656 161.203125 C 178.679688 162.878906 176.367188 163.914062 173.8125 163.914062 C 169.945312 163.914062 166.628906 161.53125 165.25 158.15625 C 164.390625 156.066406 162.386719 154.664062 160.117188 154.664062 C 158.992188 154.664062 157.921875 155.011719 157.023438 155.628906 C 156.136719 156.238281 155.421875 157.105469 155 158.15625 C 154.527344 159.300781 153.832031 160.34375 152.964844 161.203125 C 151.300781 162.878906 148.984375 163.914062 146.429688 163.914062 C 144.066406 163.914062 141.824219 163.109375 140.269531 161.5625 C 139.152344 160.445312 138.425781 159.199219 137.964844 158.058594 C 137.128906 155.988281 135.066406 154.664062 132.828125 154.664062 L 132.742188 154.664062 C 130.472656 154.664062 128.46875 156.066406 127.609375 158.15625 C 127.148438 159.300781 126.453125 160.34375 125.585938 161.203125 C 123.917969 162.878906 121.605469 163.914062 119.046875 163.914062 C 118.746094 163.914062 118.457031 163.902344 118.167969 163.871094 C 113.472656 163.429688 109.800781 159.472656 109.800781 154.664062 L 109.800781 146.074219 L 265.210938 146.074219 Z M 265.210938 154.667969 "/><path style=" stroke:none;fill-rule:nonzero;fill:#00b8d4;fill-opacity:1;" d="M 260.859375 288.714844 C 262.535156 293.792969 260.925781 299.242188 256.761719 302.597656 C 254.429688 304.46875 251.625 305.417969 248.808594 305.417969 C 246.582031 305.417969 244.355469 304.832031 242.316406 303.625 L 196.085938 276.261719 L 142.976562 276.261719 C 133.800781 276.261719 125.496094 272.984375 119.054688 267.605469 C 118.960938 267.527344 118.859375 267.441406 118.765625 267.355469 C 110.417969 260.242188 105.289062 249.558594 105.625 237.917969 C 105.667969 236.308594 105.820312 234.679688 106.085938 233.03125 L 106.085938 233 L 111.273438 200.605469 L 114.773438 178.652344 C 115.304688 178.757812 115.835938 178.835938 116.375 178.894531 C 117.277344 178.988281 118.175781 179.035156 119.042969 179.035156 C 124.011719 179.035156 128.753906 177.554688 132.742188 174.832031 C 132.992188 175.003906 133.246094 175.167969 133.496094 175.324219 L 127.3125 213.925781 L 125.894531 222.746094 L 123.765625 236.070312 L 123.734375 236.273438 C 123.457031 238.171875 123.457031 240.03125 123.71875 241.824219 C 125.015625 250.992188 132.90625 258.300781 142.730469 258.300781 L 199.511719 258.300781 C 200.339844 258.300781 201.152344 258.523438 201.863281 258.945312 L 231.105469 276.25 L 239.636719 281.304688 L 237.789062 275.703125 L 233.757812 263.457031 C 232.921875 260.929688 234.402344 258.289062 236.960938 257.539062 C 236.980469 257.539062 236.988281 257.527344 237.007812 257.527344 C 240.664062 256.445312 243.84375 254.324219 246.226562 251.511719 C 246.945312 250.652344 247.601562 249.746094 248.164062 248.769531 C 248.441406 248.296875 248.699219 247.808594 248.941406 247.304688 C 250.28125 244.488281 250.949219 241.316406 250.746094 238.011719 L 250.734375 237.921875 L 246.25 209.90625 L 240.777344 175.753906 C 241.289062 175.457031 241.78125 175.148438 242.257812 174.820312 C 246.269531 177.550781 250.992188 179.027344 255.949219 179.027344 C 256.863281 179.027344 257.714844 178.976562 258.503906 178.890625 C 258.824219 178.859375 259.140625 178.824219 259.449219 178.773438 L 268.28125 234.027344 L 268.300781 234.132812 L 268.578125 235.851562 L 268.578125 235.878906 C 269.601562 248.296875 264.367188 259.820312 255.546875 267.347656 C 255.515625 267.378906 255.480469 267.40625 255.449219 267.425781 C 255.035156 267.78125 254.613281 268.121094 254.175781 268.457031 Z M 260.859375 288.714844 "/><path style=" stroke:none;fill-rule:nonzero;fill:#00b8d4;fill-opacity:1;" d="M 167.003906 210.605469 C 167.410156 211.011719 167.773438 211.453125 168.09375 211.933594 C 168.414062 212.410156 168.683594 212.914062 168.90625 213.449219 C 169.125 213.980469 169.292969 214.527344 169.402344 215.09375 C 169.515625 215.65625 169.570312 216.226562 169.570312 216.804688 C 169.570312 217.378906 169.515625 217.949219 169.402344 218.511719 C 169.292969 219.078125 169.125 219.625 168.90625 220.15625 C 168.683594 220.691406 168.414062 221.195312 168.09375 221.671875 C 167.773438 222.152344 167.410156 222.59375 167.003906 223.003906 C 166.597656 223.410156 166.15625 223.773438 165.675781 224.09375 C 165.195312 224.414062 164.691406 224.683594 164.160156 224.902344 C 163.628906 225.121094 163.078125 225.289062 162.515625 225.402344 C 161.949219 225.515625 161.378906 225.570312 160.804688 225.570312 C 160.230469 225.570312 159.660156 225.515625 159.09375 225.402344 C 158.53125 225.289062 157.980469 225.121094 157.449219 224.902344 C 156.917969 224.683594 156.414062 224.414062 155.933594 224.09375 C 155.457031 223.773438 155.011719 223.410156 154.605469 223.003906 C 154.199219 222.59375 153.835938 222.152344 153.515625 221.671875 C 153.195312 221.195312 152.925781 220.691406 152.707031 220.15625 C 152.484375 219.625 152.320312 219.078125 152.207031 218.511719 C 152.09375 217.949219 152.039062 217.378906 152.039062 216.804688 C 152.039062 216.226562 152.09375 215.65625 152.207031 215.09375 C 152.320312 214.527344 152.484375 213.980469 152.707031 213.449219 C 152.925781 212.917969 153.195312 212.410156 153.515625 211.933594 C 153.835938 211.453125 154.199219 211.011719 154.605469 210.605469 C 155.011719 210.195312 155.457031 209.832031 155.933594 209.511719 C 156.414062 209.195312 156.917969 208.921875 157.449219 208.703125 C 157.980469 208.484375 158.53125 208.316406 159.09375 208.203125 C 159.660156 208.09375 160.230469 208.035156 160.804688 208.035156 C 161.378906 208.035156 161.949219 208.09375 162.515625 208.203125 C 163.078125 208.316406 163.628906 208.484375 164.160156 208.703125 C 164.691406 208.921875 165.195312 209.195312 165.675781 209.511719 C 166.15625 209.832031 166.597656 210.195312 167.003906 210.605469 Z M 167.003906 210.605469 "/><path style=" stroke:none;fill-rule:nonzero;fill:#00b8d4;fill-opacity:1;" d="M 195.691406 214.769531 C 195.824219 215.332031 195.902344 215.898438 195.921875 216.472656 C 195.941406 217.046875 195.90625 217.621094 195.816406 218.1875 C 195.722656 218.757812 195.574219 219.308594 195.375 219.851562 C 195.171875 220.390625 194.921875 220.902344 194.617188 221.394531 C 194.316406 221.882812 193.96875 222.339844 193.578125 222.757812 C 193.183594 223.179688 192.753906 223.558594 192.289062 223.894531 C 191.820312 224.234375 191.324219 224.519531 190.800781 224.761719 C 190.277344 225 189.734375 225.183594 189.175781 225.316406 C 188.617188 225.449219 188.046875 225.527344 187.472656 225.546875 C 186.898438 225.566406 186.324219 225.53125 185.757812 225.4375 C 185.1875 225.347656 184.636719 225.199219 184.097656 225 C 183.554688 224.796875 183.042969 224.546875 182.550781 224.242188 C 182.0625 223.941406 181.605469 223.59375 181.1875 223.199219 C 180.765625 222.808594 180.386719 222.378906 180.050781 221.910156 C 179.710938 221.445312 179.425781 220.949219 179.1875 220.425781 C 178.945312 219.902344 178.761719 219.359375 178.628906 218.800781 C 178.496094 218.238281 178.421875 217.671875 178.398438 217.097656 C 178.378906 216.519531 178.414062 215.949219 178.507812 215.382812 C 178.597656 214.8125 178.746094 214.257812 178.949219 213.71875 C 179.148438 213.179688 179.402344 212.664062 179.703125 212.175781 C 180.003906 211.6875 180.351562 211.230469 180.746094 210.808594 C 181.136719 210.386719 181.566406 210.007812 182.035156 209.671875 C 182.5 209.335938 182.996094 209.046875 183.519531 208.808594 C 184.042969 208.570312 184.585938 208.386719 185.144531 208.253906 C 185.707031 208.121094 186.273438 208.042969 186.847656 208.023438 C 187.425781 208.003906 187.996094 208.039062 188.566406 208.132812 C 189.132812 208.222656 189.6875 208.371094 190.226562 208.570312 C 190.765625 208.773438 191.28125 209.023438 191.769531 209.328125 C 192.257812 209.628906 192.714844 209.976562 193.136719 210.371094 C 193.558594 210.761719 193.9375 211.191406 194.273438 211.660156 C 194.609375 212.125 194.898438 212.621094 195.136719 213.144531 C 195.375 213.667969 195.5625 214.210938 195.691406 214.769531 Z M 195.691406 214.769531 "/><path style=" stroke:none;fill-rule:nonzero;fill:#00b8d4;fill-opacity:1;" d="M 222.046875 214.769531 C 222.179688 215.328125 222.257812 215.894531 222.277344 216.472656 C 222.296875 217.046875 222.261719 217.617188 222.167969 218.1875 C 222.078125 218.753906 221.929688 219.308594 221.730469 219.847656 C 221.527344 220.386719 221.277344 220.902344 220.972656 221.390625 C 220.671875 221.882812 220.324219 222.335938 219.929688 222.757812 C 219.539062 223.179688 219.109375 223.558594 218.640625 223.894531 C 218.175781 224.230469 217.679688 224.519531 217.15625 224.757812 C 216.632812 224.996094 216.089844 225.183594 215.53125 225.316406 C 214.96875 225.449219 214.402344 225.523438 213.828125 225.542969 C 213.25 225.566406 212.679688 225.527344 212.113281 225.4375 C 211.542969 225.34375 210.988281 225.199219 210.449219 224.996094 C 209.910156 224.796875 209.398438 224.542969 208.90625 224.242188 C 208.417969 223.9375 207.960938 223.589844 207.539062 223.199219 C 207.121094 222.804688 206.742188 222.375 206.402344 221.910156 C 206.066406 221.441406 205.78125 220.945312 205.539062 220.421875 C 205.300781 219.898438 205.117188 219.359375 204.984375 218.796875 C 204.851562 218.238281 204.773438 217.667969 204.753906 217.09375 C 204.734375 216.519531 204.769531 215.949219 204.863281 215.378906 C 204.953125 214.8125 205.101562 214.257812 205.300781 213.71875 C 205.503906 213.179688 205.753906 212.664062 206.058594 212.175781 C 206.359375 211.683594 206.707031 211.230469 207.101562 210.808594 C 207.492188 210.386719 207.921875 210.007812 208.390625 209.671875 C 208.855469 209.335938 209.351562 209.046875 209.875 208.808594 C 210.398438 208.570312 210.941406 208.382812 211.5 208.25 C 212.0625 208.117188 212.628906 208.042969 213.203125 208.023438 C 213.78125 208 214.351562 208.039062 214.917969 208.128906 C 215.488281 208.222656 216.042969 208.367188 216.582031 208.570312 C 217.121094 208.769531 217.632812 209.023438 218.125 209.324219 C 218.613281 209.628906 219.070312 209.976562 219.492188 210.367188 C 219.910156 210.761719 220.289062 211.191406 220.628906 211.65625 C 220.964844 212.125 221.25 212.617188 221.492188 213.140625 C 221.730469 213.667969 221.914062 214.207031 222.046875 214.769531 Z M 222.046875 214.769531 "/></g></svg>